HIERARCHY
ROOT newVegas:Hips
{
	OFFSET 0.000000 96.479958 0.000000
	CHANNELS 6 Xposition Yposition Zposition Xrotation Yrotation Zrotation
	JOINT newVegas:Pelvis
	{
		OFFSET 0.000000 0.000000 0.000000
		CHANNELS 3 Xrotation Yrotation Zrotation
		JOINT newVegas:LeftUpLeg
		{
			OFFSET 18.735201 -5.666702 -4.541200
			CHANNELS 3 Xrotation Yrotation Zrotation
			JOINT newVegas:LeftLeg
			{
				OFFSET -0.021200 -31.938179 0.493100
				CHANNELS 3 Xrotation Yrotation Zrotation
				JOINT newVegas:LeftFoot
				{
					OFFSET 0.021200 -31.938179 -4.336299
					CHANNELS 3 Xrotation Yrotation Zrotation
					JOINT newVegas:LeftToeBase
					{
						OFFSET 0.943001 -26.722000 15.023500
						CHANNELS 3 Xrotation Yrotation Zrotation
						End Site
						{
							OFFSET 0.000000 30.670183 0.000000
						}
					}
				}
				JOINT newVegas:Left_PantLeg
				{
					OFFSET 0.663870 -9.044666 -1.108900
					CHANNELS 3 Xrotation Yrotation Zrotation
					End Site
					{
						OFFSET 1.415995 20.635357 0.000000
					}
				}
			}
		}
		JOINT newVegas:RightUpLeg
		{
			OFFSET -18.735201 -5.666702 -4.541200
			CHANNELS 3 Xrotation Yrotation Zrotation
			JOINT newVegas:RightLeg
			{
				OFFSET 0.018946 -31.938133 0.493100
				CHANNELS 3 Xrotation Yrotation Zrotation
				JOINT newVegas:RightFoot
				{
					OFFSET -0.018946 -31.938126 -4.336299
					CHANNELS 3 Xrotation Yrotation Zrotation
					JOINT newVegas:RightToeBase
					{
						OFFSET -0.943001 -26.722004 15.023500
						CHANNELS 3 Xrotation Yrotation Zrotation
						End Site
						{
							OFFSET 0.000000 30.670187 0.000000
						}
					}
				}
				JOINT newVegas:Right_PantLeg
				{
					OFFSET -0.661674 -9.044716 -1.108900
					CHANNELS 3 Xrotation Yrotation Zrotation
					End Site
					{
						OFFSET -1.415958 20.635269 0.000000
					}
				}
			}
		}
	}
	JOINT newVegas:Spine
	{
		OFFSET 0.000000 10.199997 -0.299500
		CHANNELS 3 Xrotation Yrotation Zrotation
		JOINT newVegas:Spine1
		{
			OFFSET 0.000000 11.900002 -1.516600
			CHANNELS 3 Xrotation Yrotation Zrotation
			JOINT newVegas:Spine2
			{
				OFFSET 0.000000 13.600006 -2.842500
				CHANNELS 3 Xrotation Yrotation Zrotation
				JOINT newVegas:Neck
				{
					OFFSET 0.000000 9.624100 -2.890100
					CHANNELS 3 Xrotation Yrotation Zrotation
					JOINT newVegas:Head
					{
						OFFSET 0.000000 14.068802 -1.351900
						CHANNELS 3 Xrotation Yrotation Zrotation
						JOINT newVegas:Hair_Back
						{
							OFFSET 0.000000 3.231903 -17.524799
							CHANNELS 3 Xrotation Yrotation Zrotation
							End Site
							{
								OFFSET 0.000000 19.849884 0.000000
							}
						}
						JOINT newVegas:Hair_Front
						{
							OFFSET 0.000000 31.260406 4.573800
							CHANNELS 3 Xrotation Yrotation Zrotation
							JOINT newVegas:Hair_Front1
							{
								OFFSET 0.000000 2.284103 11.993300
								CHANNELS 3 Xrotation Yrotation Zrotation
								JOINT newVegas:Hair_Front2
								{
									OFFSET 0.000000 2.284103 11.993300
									CHANNELS 3 Xrotation Yrotation Zrotation
									End Site
									{
										OFFSET 0.000000 12.208862 0.000000
									}
								}
							}
						}
						JOINT newVegas:Jowel
						{
							OFFSET 0.000000 -7.458206 6.864100
							CHANNELS 3 Xrotation Yrotation Zrotation
							End Site
							{
								OFFSET 0.000000 19.849884 0.000000
							}
						}
					}
				}
				JOINT newVegas:LeftShoulder
				{
					OFFSET 15.263000 10.923401 -0.547700
					CHANNELS 3 Xrotation Yrotation Zrotation
					JOINT newVegas:LeftArm
					{
						OFFSET 25.438599 -2.830597 -13.032500
						CHANNELS 3 Xrotation Yrotation Zrotation
						JOINT newVegas:LeftForeArm
						{
							OFFSET 29.960503 0.000000 0.000000
							CHANNELS 3 Xrotation Yrotation Zrotation
							JOINT newVegas:LeftHand
							{
								OFFSET 27.849251 0.000000 0.000000
								CHANNELS 3 Xrotation Yrotation Zrotation
								JOINT newVegas:LeftHandThumb1
								{
									OFFSET 4.487587 -3.305161 6.305391
									CHANNELS 3 Xrotation Yrotation Zrotation
									JOINT newVegas:LeftHandThumb2
									{
										OFFSET 5.480453 -3.164139 3.164143
										CHANNELS 3 Xrotation Yrotation Zrotation
										JOINT newVegas:LeftHandThumb3
										{
											OFFSET 5.159721 -2.978973 2.978967
											CHANNELS 3 Xrotation Yrotation Zrotation
											End Site
											{
												OFFSET 2.494507 5.926697 1.738678
											}
										}
									}
								}
								JOINT newVegas:LeftHandIndex1
								{
									OFFSET 18.578728 -0.527832 5.208049
									CHANNELS 3 Xrotation Yrotation Zrotation
									JOINT newVegas:LeftHandIndex2
									{
										OFFSET 3.192009 0.000000 0.000000
										CHANNELS 3 Xrotation Yrotation Zrotation
										JOINT newVegas:LeftHandIndex3
										{
											OFFSET 3.835129 0.000000 0.000000
											CHANNELS 3 Xrotation Yrotation Zrotation
											End Site
											{
												OFFSET -0.034599 3.816971 0.371180
											}
										}
									}
								}
								JOINT newVegas:LeftHandMiddle1
								{
									OFFSET 18.476105 0.000000 0.000000
									CHANNELS 3 Xrotation Yrotation Zrotation
									JOINT newVegas:LeftHandMiddle2
									{
										OFFSET 3.324875 0.000000 0.000000
										CHANNELS 3 Xrotation Yrotation Zrotation
										JOINT newVegas:LeftHandMiddle3
										{
											OFFSET 4.596550 0.000000 0.000000
											CHANNELS 3 Xrotation Yrotation Zrotation
											End Site
											{
												OFFSET 0.057701 4.578827 0.399218
											}
										}
									}
								}
								JOINT newVegas:LeftHandRing1
								{
									OFFSET 17.732719 0.121887 -4.201567
									CHANNELS 3 Xrotation Yrotation Zrotation
									JOINT newVegas:LeftHandRing2
									{
										OFFSET 2.733170 0.000000 0.000000
										CHANNELS 3 Xrotation Yrotation Zrotation
										JOINT newVegas:LeftHandRing3
										{
											OFFSET 3.178268 0.000000 0.000000
											CHANNELS 3 Xrotation Yrotation Zrotation
											End Site
											{
												OFFSET 0.119102 3.170624 0.185394
											}
										}
									}
								}
								JOINT newVegas:LeftHandPinky1
								{
									OFFSET 15.989624 -0.606689 -7.535461
									CHANNELS 3 Xrotation Yrotation Zrotation
									JOINT newVegas:LeftHandPinky2
									{
										OFFSET 2.538986 0.000000 0.000000
										CHANNELS 3 Xrotation Yrotation Zrotation
										JOINT newVegas:LeftHandPinky3
										{
											OFFSET 2.593102 0.000000 0.000000
											CHANNELS 3 Xrotation Yrotation Zrotation
											End Site
											{
												OFFSET -0.150902 2.584198 0.152708
											}
										}
									}
								}
							}
							JOINT newVegas:Left_Sleeve
							{
								OFFSET 0.267448 -0.649796 0.577675
								CHANNELS 3 Xrotation Yrotation Zrotation
								End Site
								{
									OFFSET 0.000000 15.991241 0.000000
								}
							}
							JOINT newVegas:Left_CapeC
							{
								OFFSET 15.715958 -8.608795 -6.935905
								CHANNELS 3 Xrotation Yrotation Zrotation
								JOINT newVegas:Left_CapeC1
								{
									OFFSET 0.000000 -8.688499 0.000000
									CHANNELS 3 Xrotation Yrotation Zrotation
									End Site
									{
										OFFSET 0.000000 8.688499 0.000000
									}
								}
							}
						}
						JOINT newVegas:Left_CapeB
						{
							OFFSET 26.118385 -8.608795 -7.079235
							CHANNELS 3 Xrotation Yrotation Zrotation
							JOINT newVegas:Left_CapeB1
							{
								OFFSET 0.000000 -8.688499 0.000000
								CHANNELS 3 Xrotation Yrotation Zrotation
								End Site
								{
									OFFSET 0.000000 8.688499 0.000000
								}
							}
						}
						JOINT newVegas:Left_CapeA
						{
							OFFSET 5.115639 -8.608795 -10.395809
							CHANNELS 3 Xrotation Yrotation Zrotation
							JOINT newVegas:Left_CapeA1
							{
								OFFSET 0.000000 -8.688499 0.000000
								CHANNELS 3 Xrotation Yrotation Zrotation
								End Site
								{
									OFFSET 0.000000 8.688499 0.000000
								}
							}
						}
					}
				}
				JOINT newVegas:RightShoulder
				{
					OFFSET -15.263000 10.923401 -0.547700
					CHANNELS 3 Xrotation Yrotation Zrotation
					JOINT newVegas:RightArm
					{
						OFFSET -25.438599 -2.830597 -13.032500
						CHANNELS 3 Xrotation Yrotation Zrotation
						JOINT newVegas:RightForeArm
						{
							OFFSET -29.960503 0.000000 0.000000
							CHANNELS 3 Xrotation Yrotation Zrotation
							JOINT newVegas:RightHand
							{
								OFFSET -27.849251 0.000000 0.000000
								CHANNELS 3 Xrotation Yrotation Zrotation
								JOINT newVegas:RightHandThumb1
								{
									OFFSET -4.487587 -3.305161 6.305391
									CHANNELS 3 Xrotation Yrotation Zrotation
									JOINT newVegas:RightHandThumb2
									{
										OFFSET -5.480453 -3.164139 3.164143
										CHANNELS 3 Xrotation Yrotation Zrotation
										JOINT newVegas:RightHandThumb3
										{
											OFFSET -5.159721 -2.978973 2.978967
											CHANNELS 3 Xrotation Yrotation Zrotation
											End Site
											{
												OFFSET -2.494507 5.926697 1.738678
											}
										}
									}
								}
								JOINT newVegas:RightHandIndex1
								{
									OFFSET -18.578728 -0.527832 5.208049
									CHANNELS 3 Xrotation Yrotation Zrotation
									JOINT newVegas:RightHandIndex2
									{
										OFFSET -3.192009 0.000000 0.000000
										CHANNELS 3 Xrotation Yrotation Zrotation
										JOINT newVegas:RightHandIndex3
										{
											OFFSET -3.835129 0.000000 0.000000
											CHANNELS 3 Xrotation Yrotation Zrotation
											End Site
											{
												OFFSET 0.034599 3.816971 0.371180
											}
										}
									}
								}
								JOINT newVegas:RightHandMiddle1
								{
									OFFSET -18.476105 0.000000 0.000000
									CHANNELS 3 Xrotation Yrotation Zrotation
									JOINT newVegas:RightHandMiddle2
									{
										OFFSET -3.324875 0.000000 0.000000
										CHANNELS 3 Xrotation Yrotation Zrotation
										JOINT newVegas:RightHandMiddle3
										{
											OFFSET -4.596550 0.000000 0.000000
											CHANNELS 3 Xrotation Yrotation Zrotation
											End Site
											{
												OFFSET -0.057701 4.578827 0.399218
											}
										}
									}
								}
								JOINT newVegas:RightHandRing1
								{
									OFFSET -17.732719 0.121887 -4.201567
									CHANNELS 3 Xrotation Yrotation Zrotation
									JOINT newVegas:RightHandRing2
									{
										OFFSET -2.733170 0.000000 0.000000
										CHANNELS 3 Xrotation Yrotation Zrotation
										JOINT newVegas:RightHandRing3
										{
											OFFSET -3.178268 0.000000 0.000000
											CHANNELS 3 Xrotation Yrotation Zrotation
											End Site
											{
												OFFSET -0.119102 3.170624 0.185394
											}
										}
									}
								}
								JOINT newVegas:RightHandPinky1
								{
									OFFSET -15.989624 -0.606689 -7.535461
									CHANNELS 3 Xrotation Yrotation Zrotation
									JOINT newVegas:RightHandPinky2
									{
										OFFSET -2.538986 0.000000 0.000000
										CHANNELS 3 Xrotation Yrotation Zrotation
										JOINT newVegas:RightHandPinky3
										{
											OFFSET -2.593102 0.000000 0.000000
											CHANNELS 3 Xrotation Yrotation Zrotation
											End Site
											{
												OFFSET 0.150902 2.584198 0.152708
											}
										}
									}
								}
							}
							JOINT newVegas:Right_CapeC
							{
								OFFSET -15.715958 -8.608795 -6.935905
								CHANNELS 3 Xrotation Yrotation Zrotation
								JOINT newVegas:Right_CapeC1
								{
									OFFSET 0.000000 -8.688499 0.000000
									CHANNELS 3 Xrotation Yrotation Zrotation
									End Site
									{
										OFFSET 0.000000 8.688499 0.000000
									}
								}
							}
							JOINT newVegas:Right_Sleeve
							{
								OFFSET -0.267448 -0.649994 0.577675
								CHANNELS 3 Xrotation Yrotation Zrotation
								End Site
								{
									OFFSET 0.000000 15.991302 0.000000
								}
							}
						}
						JOINT newVegas:Right_CapeA
						{
							OFFSET -5.115540 -8.608795 -10.395824
							CHANNELS 3 Xrotation Yrotation Zrotation
							JOINT newVegas:Right_CapeA1
							{
								OFFSET 0.000000 -8.688499 0.000000
								CHANNELS 3 Xrotation Yrotation Zrotation
								End Site
								{
									OFFSET 0.000000 8.688499 0.000000
								}
							}
						}
						JOINT newVegas:Right_CapeB
						{
							OFFSET -26.118187 -8.608795 -7.079266
							CHANNELS 3 Xrotation Yrotation Zrotation
							JOINT newVegas:Right_CapeB1
							{
								OFFSET 0.000000 -8.688499 0.000000
								CHANNELS 3 Xrotation Yrotation Zrotation
								End Site
								{
									OFFSET 0.000000 8.688499 0.000000
								}
							}
						}
					}
				}
				JOINT newVegas:Left_Collar
				{
					OFFSET 18.625099 8.655502 8.828100
					CHANNELS 3 Xrotation Yrotation Zrotation
					JOINT newVegas:Left_Collar1
					{
						OFFSET 14.783401 10.540405 -1.259500
						CHANNELS 3 Xrotation Yrotation Zrotation
						End Site
						{
							OFFSET 0.000000 18.199875 0.000000
						}
					}
				}
				JOINT newVegas:Collar_Back
				{
					OFFSET 0.000000 15.630707 -20.132601
					CHANNELS 3 Xrotation Yrotation Zrotation
					End Site
					{
						OFFSET 0.000000 22.523010 0.000000
					}
				}
				JOINT newVegas:Left_Peck
				{
					OFFSET 17.239599 -5.132599 25.482599
					CHANNELS 3 Xrotation Yrotation Zrotation
					End Site
					{
						OFFSET 0.000000 22.523010 0.000000
					}
				}
				JOINT newVegas:Right_Peck
				{
					OFFSET -17.239599 -5.132202 25.482599
					CHANNELS 3 Xrotation Yrotation Zrotation
					End Site
					{
						OFFSET 0.000000 22.523010 0.000000
					}
				}
				JOINT newVegas:Right_Collar
				{
					OFFSET -18.625099 8.655792 8.828100
					CHANNELS 3 Xrotation Yrotation Zrotation
					JOINT newVegas:Right_Collar1
					{
						OFFSET -14.783401 10.539993 -1.259500
						CHANNELS 3 Xrotation Yrotation Zrotation
						End Site
						{
							OFFSET 0.000000 18.199631 0.000000
						}
					}
				}
			}
		}
		JOINT newVegas:Belly
		{
			OFFSET 0.000000 -6.540398 9.014299
			CHANNELS 3 Xrotation Yrotation Zrotation
			End Site
			{
				OFFSET 0.000000 11.566666 0.000000
			}
		}
	}
	JOINT newVegas:ElvisFacialAnim_Joint
	{
		OFFSET 1.000000 -95.330101 -8.825800
		CHANNELS 3 Xrotation Yrotation Zrotation
		End Site
		{
			OFFSET 0.000000 35.315800 0.000000
		}
	}
}
MOTION
Frames: 4
Frame Time: 0.016667
1.950297 87.487976 4.768108 26.295818 11.563940 1.874799 -0.000001 -0.000001 -0.000000 -42.185782 8.373096 16.095385 40.757337 9.024214 -5.307007 7.117715 21.909831 -19.924666 0.000000 -0.000002 0.000000 0.000000 -0.000001 0.000001 -71.255361 -10.414477 -12.401097 45.455513 3.558255 -5.305578 -0.882606 -9.892214 0.360357 0.000000 -0.000001 0.000000 -0.000000 0.000000 -0.000000 11.259505 -1.190097 0.894613 9.276079 2.486270 -1.078452 9.399705 1.253081 -3.812948 -3.551321 1.241332 -0.087372 -3.551330 1.241338 -0.087380 -0.000000 -0.000001 -0.000000 -3.551321 1.241334 -0.087374 -3.551240 1.241335 -0.087380 -0.000001 -0.000001 -0.000000 -0.000000 -0.000001 -0.000000 0.803781 0.857152 -9.303933 -29.535879 -3.682378 -62.075109 -0.000001 -41.672801 0.000017 20.410309 8.999553 -6.096358 -6.000710 -6.126808 4.616740 7.450089 23.644283 2.310980 0.000002 -0.000002 -0.000001 1.311404 -4.551188 -15.849338 1.142359 3.477102 -36.365139 -0.000002 -0.000000 0.000002 0.477012 4.520324 -21.613206 1.655963 4.082378 -44.144476 0.000001 -0.000002 0.000002 2.993469 9.713604 -25.720735 1.694439 4.121553 -44.682210 -0.000001 0.000003 0.000003 -10.154133 18.200864 -22.286610 1.656845 4.083291 -44.156849 0.000001 0.000000 -0.000001 -0.000000 -0.000000 0.000001 -0.000000 -0.000000 0.000001 -0.000000 -0.000001 0.000001 0.000001 -0.000003 0.000003 0.000001 -0.000003 0.000004 0.000001 -0.000003 0.000003 0.000001 -0.000003 0.000004 5.720861 24.427849 1.421184 -24.663786 -14.041426 65.136434 -0.000003 37.034262 0.000024 11.717743 14.064660 -10.776500 -5.141676 1.887950 -6.280720 7.832893 -27.003880 -3.053124 -0.000003 -0.000002 -0.000001 9.420648 2.591768 6.997320 0.448770 -1.996460 25.335316 0.000004 0.000001 0.000001 0.141887 -3.212530 11.503904 0.448787 -1.996454 25.335323 -0.000003 0.000000 -0.000001 1.475386 -6.489810 23.742033 0.450095 -1.999224 25.372804 0.000001 0.000001 -0.000000 -12.523758 -9.712298 30.059697 0.448771 -1.996456 25.335306 0.000002 0.000003 -0.000001 0.000002 -0.000000 0.000000 0.000002 -0.000000 0.000000 0.000002 -0.000000 0.000000 0.000002 -0.000004 0.000002 0.000002 -0.000003 0.000002 0.000002 -0.000004 0.000002 0.000002 -0.000003 0.000003 -0.000004 -0.000000 -0.000000 -0.000004 -0.000000 -0.000000 -0.000004 -0.000000 -0.000000 -0.000004 -0.000000 -0.000000 -0.000004 -0.000000 -0.000000 -0.000004 -0.000000 -0.000000 -0.000004 -0.000000 -0.000000 0.000002 0.000000 -0.000001 -0.000001 -0.000001 -0.000000 
1.849276 88.563942 6.170113 26.220147 11.900122 2.110236 -0.000001 0.000001 -0.000000 -42.107447 8.823443 14.742967 38.087491 8.998615 -5.281238 6.731388 23.472394 -20.511041 -0.000000 0.000001 -0.000000 0.000002 0.000002 0.000001 -68.474532 -10.684346 -12.292309 43.346573 3.729270 -5.416639 -1.483340 -10.295405 0.588134 -0.000000 0.000000 -0.000000 0.000000 -0.000000 -0.000001 10.883514 -0.723807 0.938610 9.270635 2.730512 -1.057022 9.403900 1.489580 -3.792867 -3.636015 1.205784 -0.154580 -3.635976 1.205784 -0.154575 0.000002 -0.000001 0.000001 -3.635965 1.205804 -0.154584 -3.636099 1.205800 -0.154579 0.000000 0.000000 -0.000001 0.000002 -0.000001 0.000001 0.819702 0.837069 -9.277597 -28.935714 -1.468109 -61.169774 -0.000000 -41.886647 -0.000005 28.314174 8.850563 -10.911718 -6.000713 -6.126800 4.616776 7.450086 23.644283 2.310975 0.000003 0.000001 -0.000003 1.332689 -4.478266 -16.588784 1.170437 3.514849 -36.825668 0.000000 -0.000001 0.000002 0.494569 4.563968 -22.073426 1.678321 4.105241 -44.457647 0.000003 -0.000002 -0.000002 3.034022 9.729410 -26.036563 1.710899 4.138078 -44.910751 0.000004 0.000003 0.000004 -10.114113 18.209732 -22.521275 1.669242 4.095996 -44.330745 0.000001 0.000000 -0.000003 -0.000000 -0.000000 0.000002 -0.000000 -0.000000 0.000002 -0.000000 -0.000000 0.000002 0.000000 0.000002 -0.000002 0.000000 0.000001 -0.000001 0.000000 0.000002 -0.000002 -0.000000 0.000002 -0.000002 5.725877 24.411897 1.390778 -24.662561 -15.375729 64.479964 -0.000007 37.223192 -0.000012 10.068249 13.567043 -10.840896 -5.210752 2.102423 -6.162666 7.832895 -27.003873 -3.053129 -0.000000 -0.000001 0.000001 9.420637 2.591760 6.997314 0.458711 -2.017264 25.618889 0.000003 -0.000001 0.000000 0.144108 -3.223358 11.639864 0.454450 -2.008364 25.497141 -0.000004 0.000000 -0.000003 1.483122 -6.495709 23.847368 0.454592 -2.008679 25.501531 0.000004 0.000004 0.000002 -12.459881 -9.795189 30.147157 0.452435 -2.004134 25.439801 0.000001 0.000001 0.000003 0.000000 -0.000000 -0.000000 0.000000 -0.000000 0.000000 0.000000 -0.000000 -0.000000 -0.000001 0.000000 0.000000 -0.000001 0.000001 0.000001 -0.000001 0.000000 0.000000 -0.000000 0.000001 0.000001 -0.000003 0.000000 -0.000000 -0.000003 0.000000 -0.000000 -0.000003 0.000000 -0.000000 -0.000003 0.000000 -0.000000 -0.000003 0.000000 -0.000000 -0.000003 0.000000 -0.000000 -0.000003 0.000000 -0.000000 0.000002 0.000000 -0.000000 -0.000001 0.000001 -0.000000 
2.003244 89.498726 7.968376 26.036002 12.444133 2.237025 -0.000000 0.000001 -0.000000 -41.741687 9.103818 13.709469 35.053695 8.639263 -5.228619 8.129348 24.903604 -21.863929 -0.000000 0.000002 -0.000000 -0.000001 0.000004 -0.000001 -65.601057 -11.005698 -12.549740 41.987574 3.619654 -5.519767 -2.820773 -10.480798 1.052083 0.000000 0.000000 0.000000 -0.000000 -0.000000 -0.000001 10.468627 -0.094141 1.101619 9.248250 2.964295 -0.996380 9.387522 1.751382 -3.651125 -3.710386 1.131281 -0.243060 -3.710397 1.131277 -0.243053 0.000001 0.000001 -0.000001 -3.710411 1.131260 -0.243053 -3.710422 1.131289 -0.243057 -0.000001 0.000002 -0.000000 0.000001 0.000001 -0.000000 0.864113 0.779457 -9.200430 -27.914285 0.938270 -60.038497 -0.000001 -42.148869 -0.000006 33.782829 8.315955 -15.356984 -6.000713 -6.126809 4.616750 7.450086 23.644286 2.310976 -0.000000 -0.000001 0.000001 1.391889 -4.291524 -18.495565 1.247194 3.614890 -38.060082 -0.000000 -0.000001 0.000002 0.543329 4.680219 -23.306987 1.740279 4.167268 -45.316557 -0.000002 -0.000004 0.000000 3.145669 9.771614 -26.902664 1.757048 4.183748 -45.546946 -0.000001 -0.000000 -0.000002 -10.003797 18.233530 -23.175399 1.704330 4.131497 -44.819746 -0.000003 0.000000 -0.000001 -0.000001 -0.000000 0.000002 -0.000001 -0.000000 0.000002 -0.000001 -0.000001 0.000002 0.000001 -0.000001 0.000001 0.000001 -0.000002 -0.000003 0.000001 -0.000001 0.000001 -0.000000 -0.000002 0.000002 5.738799 24.365544 1.303479 -24.740736 -16.700528 63.463256 -0.000002 37.406511 0.000013 8.192585 12.947376 -10.997479 -5.403160 2.694634 -5.834628 7.832889 -27.003879 -3.053121 0.000000 -0.000001 -0.000002 9.420632 2.591771 6.997318 0.486714 -2.074610 26.402899 -0.000000 0.000001 -0.000000 0.150459 -3.253690 12.020576 0.470609 -2.041874 25.954575 0.000003 -0.000001 -0.000002 1.505060 -6.512325 24.145050 0.467525 -2.035553 25.867902 -0.000002 0.000001 0.000001 -12.276617 -10.030105 30.396961 0.462939 -2.026077 25.738834 -0.000001 0.000003 0.000003 -0.000001 0.000000 -0.000000 -0.000001 0.000000 -0.000000 -0.000001 0.000000 -0.000000 0.000000 -0.000001 0.000000 0.000000 0.000000 -0.000001 0.000000 -0.000001 0.000000 0.000000 -0.000000 -0.000000 -0.000001 -0.000001 -0.000001 -0.000001 -0.000001 -0.000001 -0.000001 -0.000001 -0.000001 -0.000001 -0.000001 -0.000001 -0.000001 -0.000001 -0.000001 -0.000001 -0.000001 -0.000001 -0.000001 -0.000001 -0.000001 0.000001 0.000000 0.000000 -0.000000 0.000001 -0.000000 
2.183213 90.375061 9.771458 25.754417 13.209659 2.301140 0.000001 -0.000001 0.000001 -41.497265 9.298223 12.713294 31.976811 7.833654 -5.174812 9.969372 26.995189 -23.110893 0.000000 -0.000001 -0.000000 -0.000002 0.000001 0.000001 -62.624468 -11.493716 -12.909150 40.679872 3.727746 -5.623702 -4.219955 -10.981045 1.502844 -0.000000 -0.000000 0.000000 -0.000000 -0.000000 -0.000000 10.125650 0.643247 1.334466 9.210898 3.190166 -0.903509 9.351834 2.036269 -3.375821 -3.777684 1.027880 -0.351692 -3.777674 1.027873 -0.351687 0.000000 -0.000002 0.000000 -3.777642 1.027897 -0.351699 -3.777759 1.027847 -0.351685 -0.000003 0.000001 0.000001 0.000000 -0.000002 0.000001 0.932217 0.688371 -9.075186 -26.479334 3.102031 -58.698427 0.000007 -42.442997 0.000013 35.621451 7.717642 -18.708727 -6.000707 -6.126807 4.616746 7.450087 23.644284 2.310976 0.000001 -0.000002 -0.000005 1.482845 -4.039555 -21.102385 1.362131 3.756755 -39.847696 -0.000001 0.000000 0.000002 0.618374 4.846608 -25.093434 1.834576 4.258220 -46.600089 -0.000001 0.000002 -0.000000 3.311836 9.828171 -28.197172 1.828402 4.252387 -46.516798 0.000002 -0.000002 -0.000002 -9.839241 18.267291 -24.172185 1.759081 4.185735 -45.574816 -0.000001 -0.000001 -0.000003 -0.000001 -0.000001 0.000004 -0.000001 -0.000001 0.000004 -0.000001 -0.000001 0.000004 0.000001 0.000003 0.000001 0.000001 0.000003 0.000001 0.000001 0.000003 0.000001 0.000002 0.000003 0.000002 5.756299 24.290980 1.165175 -24.886552 -18.127291 62.390158 0.000002 37.716694 -0.000011 6.128147 12.171668 -11.084192 -5.697778 3.587366 -5.334414 7.832894 -27.003879 -3.053124 0.000002 -0.000001 -0.000002 9.420638 2.591775 6.997341 0.530471 -2.160478 27.587342 -0.000000 -0.000000 -0.000001 0.160634 -3.300167 12.605213 0.496256 -2.093730 26.665351 0.000001 -0.000001 -0.000002 1.539364 -6.537909 24.607532 0.488139 -2.077475 26.442273 0.000003 0.000002 0.000003 -11.985061 -10.395318 30.791087 0.479775 -2.060596 26.210832 0.000002 -0.000000 -0.000001 -0.000001 0.000000 -0.000000 -0.000001 0.000000 -0.000000 -0.000001 0.000000 -0.000000 0.000002 0.000001 -0.000002 0.000002 0.000002 0.000000 0.000002 0.000001 -0.000002 0.000002 0.000002 0.000001 0.000000 -0.000001 0.000000 0.000000 -0.000001 0.000000 0.000000 -0.000001 0.000000 0.000000 -0.000001 0.000000 0.000000 -0.000001 0.000000 0.000000 -0.000001 0.000000 0.000000 -0.000001 0.000000 0.000001 -0.000000 -0.000000 0.000001 -0.000001 0.000001 
